<svg width="108" height="23" viewBox="0 0 108 23" fill="none" xmlns="http://www.w3.org/2000/svg">
<path d="M17.2946 10.2511C17.0023 10.5434 16.7784 10.8962 16.6389 11.2843C16.4995 11.6725 16.4478 12.0864 16.4877 12.4967L16.4738 12.4829C16.5149 12.9658 16.4493 13.4517 16.2818 13.9069C16.1144 14.362 15.849 14.7753 15.5042 15.118C15.1594 15.4606 14.7435 15.7244 14.2855 15.8908C13.8276 16.0572 13.3386 16.1224 12.8528 16.0816L12.8666 16.0954C12.2855 16.0417 11.7017 16.1673 11.195 16.4553C10.6883 16.7434 10.2833 17.1797 10.0353 17.7049C9.78726 18.23 9.70819 18.8184 9.80893 19.3898C9.90976 19.9612 10.1854 20.4879 10.5983 20.8979C11.0113 21.3079 11.5414 21.5814 12.1164 21.6809C12.6915 21.7806 13.2834 21.7015 13.8116 21.4545C14.3398 21.2075 14.7785 20.8047 15.0678 20.3009C15.3572 19.797 15.4832 19.2168 15.4286 18.6392L15.4432 18.653C15.4022 18.1701 15.4677 17.6842 15.6351 17.229C15.8026 16.7739 16.0681 16.3606 16.4128 16.0179C16.7577 15.6753 17.1735 15.4114 17.6315 15.2451C18.0894 15.0786 18.5784 15.0135 19.0643 15.0543L19.0496 15.0405C19.5244 15.0829 20.0023 15.0055 20.439 14.8155C20.8756 14.6255 21.257 14.3291 21.5477 13.9536C21.8384 13.5782 22.0291 13.1358 22.1019 12.6677C22.1748 12.1995 22.1276 11.7206 21.9646 11.2754C21.8017 10.8302 21.5283 10.433 21.1698 10.1208C20.8114 9.8085 20.3794 9.59122 19.9139 9.4891C19.4484 9.38698 18.9645 9.40324 18.507 9.53641C18.0496 9.66965 17.6334 9.91545 17.297 10.2511H17.2946Z" fill="white"/>
<path d="M11.6039 14.2876L11.5892 14.2738C12.0021 14.3151 12.4192 14.2648 12.8102 14.1263C13.2012 13.9878 13.5563 13.7648 13.8499 13.4732C14.1435 13.1817 14.3683 12.8289 14.5078 12.4404C14.6475 12.0519 14.6984 11.6375 14.6572 11.2271L14.6718 11.2409C14.6308 10.7579 14.6964 10.272 14.8638 9.81686C15.0312 9.36176 15.2967 8.94845 15.6414 8.60575C15.9863 8.26313 16.4021 7.99932 16.8601 7.83295C17.3181 7.66648 17.807 7.60137 18.2929 7.64213L18.2783 7.62833C18.8595 7.68261 19.4434 7.55731 19.9504 7.26961C20.4575 6.98191 20.8628 6.54577 21.1112 6.02071C21.3596 5.49565 21.439 4.90721 21.3385 4.33565C21.2381 3.76409 20.9627 3.23726 20.5498 2.82698C20.137 2.41672 19.6069 2.14298 19.0318 2.04315C18.4567 1.94331 17.8646 2.0222 17.3363 2.26909C16.8079 2.51596 16.3691 2.91881 16.0796 3.42267C15.7901 3.92652 15.664 4.50686 15.7187 5.08453L15.7048 5.06996C15.7459 5.55288 15.6805 6.0389 15.5131 6.49409C15.3457 6.94927 15.0802 7.36265 14.7355 7.70538C14.3906 8.048 13.9747 8.31181 13.5167 8.47818C13.0586 8.64455 12.5696 8.70956 12.0837 8.6687L12.0976 8.68326C11.6846 8.64194 11.2675 8.69231 10.8766 8.83077C10.4856 8.96915 10.1304 9.19225 9.83682 9.48382C9.54322 9.77538 9.3185 10.1282 9.17887 10.5167C9.03932 10.9051 8.98833 11.3195 9.0296 11.73L9.01572 11.7162C9.0566 12.199 8.99095 12.685 8.82348 13.1401C8.65592 13.5951 8.39055 14.0084 8.0458 14.351C7.70101 14.6936 7.28518 14.9574 6.82729 15.1239C6.36941 15.2903 5.88048 15.3556 5.39463 15.3149L5.40851 15.3287C4.82726 15.2744 4.24331 15.3997 3.73632 15.6875C3.22934 15.9752 2.82399 16.4113 2.57558 16.9364C2.32717 17.4614 2.24777 18.0499 2.34823 18.6214C2.4487 19.193 2.72413 19.7198 3.13694 20.1301C3.54976 20.5404 4.07988 20.8141 4.65498 20.9139C5.23009 21.0137 5.82219 20.9348 6.35051 20.688C6.87883 20.4411 7.31768 20.0383 7.60716 19.5344C7.89668 19.0305 8.02273 18.4502 7.96812 17.8725L7.98277 17.8863C7.94173 17.4034 8.0073 16.9175 8.17478 16.4623C8.34218 16.0072 8.60763 15.5939 8.95238 15.2512C9.29721 14.9086 9.71309 14.6448 10.171 14.4784C10.629 14.312 11.1179 14.2468 11.6039 14.2876Z" fill="white"/>
<path d="M6.4337 12.7489C6.72609 12.4566 6.94994 12.1038 7.08929 11.7157C7.22865 11.3275 7.28005 10.9135 7.23985 10.5033L7.2545 10.5171C7.21346 10.0341 7.279 9.54799 7.44656 9.09274C7.61412 8.6375 7.87967 8.22411 8.22465 7.88141C8.56963 7.53873 8.98567 7.275 9.44382 7.10867C9.90197 6.94234 10.3911 6.8774 10.8771 6.9184L10.8625 6.9046C11.4435 6.9587 12.0273 6.83336 12.534 6.54568C13.0408 6.258 13.4458 5.82198 13.6942 5.29708C13.9424 4.77217 14.0217 4.18395 13.9213 3.6126C13.8208 3.04126 13.5454 2.51462 13.1328 2.1045C12.7202 1.69438 12.1902 1.42074 11.6153 1.32091C11.0404 1.22106 10.4485 1.29989 9.92041 1.54662C9.39221 1.79335 8.9535 2.19598 8.66406 2.6996C8.37454 3.20323 8.24841 3.78333 8.30287 4.3608L8.28899 4.347C8.33003 4.82989 8.26446 5.31585 8.09698 5.77098C7.9295 6.2261 7.66415 6.63942 7.31935 6.98209C6.97456 7.32476 6.55867 7.58851 6.10072 7.75491C5.64277 7.92135 5.15379 7.98652 4.6679 7.94573L4.68179 7.95953C4.20703 7.91721 3.7292 7.99472 3.29258 8.18478C2.85597 8.37484 2.47469 8.67138 2.18409 9.0469C1.89348 9.42233 1.70296 9.8647 1.63015 10.3328C1.55735 10.801 1.60463 11.2799 1.76761 11.725C1.93059 12.1702 2.20401 12.5673 2.56251 12.8795C2.92102 13.1917 3.35302 13.4089 3.81848 13.511C4.28394 13.6131 4.7678 13.5968 5.22524 13.4636C5.68266 13.3303 6.09885 13.0845 6.43524 12.7489H6.4337Z" fill="white"/>
<path d="M30.3303 5.10217H32.6214V16.1828H30.3303V5.10217Z" fill="white"/>
<path d="M33.9189 12.3886C33.9158 11.5923 34.1504 10.8129 34.5932 10.1493C35.036 9.48566 35.6671 8.96755 36.4064 8.66065C37.1457 8.35368 37.9601 8.27172 38.7463 8.42513C39.5325 8.57854 40.2553 8.96034 40.823 9.52231C41.3907 10.0842 41.7778 10.801 41.9353 11.5817C42.0928 12.3625 42.0136 13.1722 41.7077 13.9082C41.4019 14.6441 40.8831 15.2734 40.2171 15.7161C39.5511 16.1588 38.7679 16.3952 37.9666 16.3952C37.4348 16.4012 36.9071 16.3018 36.4143 16.1028C35.9215 15.9037 35.4736 15.6091 35.0967 15.2361C34.7198 14.8631 34.4216 14.4191 34.2194 13.9302C34.0171 13.4413 33.915 12.9172 33.9189 12.3886ZM39.7232 12.3886C39.7136 12.0453 39.6024 11.7125 39.4036 11.4317C39.2048 11.1509 38.927 10.9346 38.6052 10.8098C38.2833 10.685 37.9316 10.6573 37.5939 10.7301C37.2563 10.8029 36.9477 10.973 36.7068 11.2192C36.466 11.4653 36.3033 11.7765 36.2395 12.114C36.1757 12.4514 36.2132 12.8001 36.3477 13.1164C36.4822 13.4328 36.7074 13.7026 36.9953 13.8924C37.2833 14.0821 37.6212 14.1833 37.9666 14.1833C38.2032 14.1896 38.4386 14.1471 38.6579 14.0584C38.8771 13.9698 39.0755 13.837 39.2406 13.6684C39.4056 13.4998 39.5337 13.299 39.6167 13.0787C39.6998 12.8585 39.736 12.6235 39.7232 12.3886Z" fill="white"/>
<path d="M51.1457 8.59356V15.8002C51.1457 18.3502 49.1447 19.4281 47.1135 19.4281C46.3984 19.4813 45.6823 19.3377 45.0437 19.0132C44.4053 18.6886 43.8691 18.1955 43.4939 17.5881L45.4487 16.4649C45.6064 16.7816 45.8577 17.0428 46.1688 17.2137C46.48 17.3845 46.8362 17.4568 47.1899 17.421C47.4159 17.4521 47.6461 17.4323 47.8634 17.3631C48.0806 17.2938 48.2795 17.1769 48.4452 17.0211C48.6109 16.8651 48.7392 16.6742 48.8207 16.4623C48.902 16.2505 48.9344 16.0232 48.9155 15.7972V15.1033C48.6472 15.4295 48.3058 15.6888 47.9185 15.8601C47.5311 16.0315 47.1089 16.1102 46.6853 16.09C45.6777 16.0584 44.722 15.6385 44.0204 14.9189C43.3189 14.1994 42.9266 13.2367 42.9266 12.2348C42.9266 11.233 43.3189 10.2703 44.0204 9.55082C44.722 8.83123 45.6777 8.41125 46.6853 8.37966C47.1089 8.3595 47.5311 8.43823 47.9185 8.60958C48.3058 8.78093 48.6472 9.04014 48.9155 9.36636V8.59203L51.1457 8.59356ZM48.9163 12.236C48.9317 11.8691 48.8362 11.5059 48.6422 11.1933C48.4482 10.8807 48.1645 10.633 47.8276 10.482C47.4907 10.331 47.1161 10.2837 46.7519 10.3461C46.3877 10.4085 46.0507 10.5778 45.7841 10.8322C45.5176 11.0866 45.3337 11.4144 45.2562 11.7735C45.1787 12.1326 45.2111 12.5066 45.3494 12.8473C45.4875 13.1879 45.7251 13.4797 46.0316 13.685C46.338 13.8903 46.6992 13.9998 47.0687 13.9993C47.3095 14.016 47.551 13.9825 47.7779 13.9007C48.0048 13.819 48.2119 13.6909 48.386 13.5248C48.56 13.3587 48.6972 13.1582 48.7885 12.9362C48.8798 12.7142 48.9234 12.4757 48.9163 12.236Z" fill="white"/>
<path d="M52.4433 12.3886C52.4401 11.5923 52.6747 10.8129 53.1176 10.1493C53.5604 9.48566 54.1914 8.96755 54.9308 8.66065C55.6701 8.35368 56.4844 8.27172 57.2707 8.42513C58.0569 8.57854 58.7796 8.96034 59.3473 9.52231C59.915 10.0842 60.3021 10.801 60.4597 11.5817C60.6172 12.3625 60.538 13.1722 60.2321 13.9082C59.9262 14.6441 59.4074 15.2734 58.7415 15.7161C58.0754 16.1588 57.2922 16.3952 56.491 16.3952C55.9591 16.4012 55.4313 16.3018 54.9386 16.1028C54.4458 15.9037 53.9979 15.6091 53.6211 15.2361C53.2442 14.8631 52.9459 14.4191 52.7438 13.9302C52.5415 13.4413 52.4394 12.9172 52.4433 12.3886ZM58.2475 12.3886C58.2379 12.0453 58.1268 11.7125 57.928 11.4317C57.7291 11.1509 57.4514 10.9346 57.1296 10.8098C56.8076 10.685 56.4559 10.6573 56.1183 10.7301C55.7806 10.8029 55.4721 10.973 55.2312 11.2192C54.9903 11.4653 54.8277 11.7765 54.7638 12.114C54.6999 12.4514 54.7376 12.8001 54.8721 13.1164C55.0065 13.4328 55.2318 13.7026 55.5197 13.8924C55.8076 14.0821 56.1454 14.1833 56.491 14.1833C56.7276 14.1896 56.9629 14.1471 57.1822 14.0584C57.4015 13.9698 57.5999 13.837 57.7649 13.6684C57.9299 13.4998 58.058 13.299 58.1411 13.0787C58.2241 12.8585 58.2604 12.6235 58.2475 12.3886Z" fill="white"/>
<path d="M61.6071 6.55961C61.6071 6.28939 61.6877 6.02526 61.8387 5.80059C61.9898 5.57592 62.2045 5.40081 62.4557 5.2974C62.7069 5.194 62.9833 5.16694 63.25 5.21966C63.5166 5.27237 63.7616 5.40249 63.9538 5.59356C64.1461 5.78462 64.277 6.02805 64.33 6.29308C64.383 6.55809 64.3558 6.83279 64.2518 7.08243C64.1478 7.33207 63.9716 7.54544 63.7455 7.69558C63.5194 7.84569 63.2537 7.92581 62.9817 7.92581C62.6183 7.9222 62.2707 7.77715 62.0137 7.52168C61.7567 7.26624 61.6107 6.92083 61.6071 6.55961ZM61.8385 8.59357H64.1304V16.1836H61.8354L61.8385 8.59357Z" fill="white"/>
<path d="M74.0232 12.3886C74.0497 12.8902 73.9761 13.3921 73.8067 13.8653C73.6374 14.3386 73.3756 14.7739 73.0363 15.1463C72.6971 15.5186 72.2871 15.8206 71.83 16.035C71.3729 16.2493 70.8777 16.3717 70.3728 16.3952C69.9482 16.4182 69.5238 16.347 69.1303 16.1869C68.7368 16.0266 68.3842 15.7814 68.0978 15.469V19.2188H65.8067V8.59356H68.0978V9.30656C68.3843 8.99437 68.7371 8.74935 69.1305 8.58934C69.524 8.42927 69.9483 8.3582 70.3728 8.3812C70.8778 8.40458 71.3731 8.52694 71.8303 8.7413C72.2876 8.95566 72.6976 9.25773 73.0368 9.63017C73.3761 10.0026 73.6379 10.4381 73.8072 10.9115C73.9764 11.3848 74.0499 11.8869 74.0232 12.3886ZM71.732 12.3886C71.7231 12.0334 71.6089 11.6887 71.4038 11.3976C71.1987 11.1065 70.9118 10.8821 70.579 10.7523C70.2461 10.6225 69.8822 10.5932 69.5326 10.668C69.1831 10.7428 68.8636 10.9183 68.6139 11.1727C68.3643 11.4272 68.1957 11.749 68.1293 12.0982C68.0629 12.4474 68.1015 12.8082 68.2405 13.1356C68.3793 13.463 68.6124 13.7424 68.9103 13.9389C69.2082 14.1353 69.5578 14.2401 69.9153 14.2401C70.1608 14.2509 70.4058 14.2101 70.6343 14.1202C70.8627 14.0305 71.0695 13.8936 71.241 13.7188C71.4126 13.5439 71.545 13.3351 71.6296 13.1059C71.7142 12.8766 71.7492 12.6321 71.732 12.3886Z" fill="white"/>
<path d="M81.0934 13.9058C81.0934 15.6515 79.5667 16.3952 77.9174 16.3952C77.2509 16.4551 76.5818 16.3151 75.9964 15.9931C75.4109 15.6711 74.9362 15.1819 74.6334 14.5889L76.6183 13.4657C76.6986 13.7398 76.8711 13.9783 77.1069 14.1413C77.3427 14.3042 77.6281 14.3819 77.9143 14.3612C78.4636 14.3612 78.739 14.1941 78.739 13.8912C78.739 13.0556 74.9813 13.4964 74.9813 10.8706C74.9813 9.21534 76.3869 8.38121 77.9753 8.38121C78.5723 8.36243 79.1632 8.50319 79.687 8.78877C80.2108 9.07443 80.6483 9.49441 80.953 10.005L78.9982 11.0523C78.9125 10.8535 78.7698 10.6841 78.5878 10.5654C78.4057 10.4466 78.1928 10.3837 77.9753 10.3845C77.578 10.3845 77.3334 10.5378 77.3334 10.8092C77.3365 11.6748 81.0934 11.0975 81.0934 13.9058Z" fill="white"/>
<path d="M89.4625 8.59357V16.1836H87.1714V15.4698C86.9068 15.7847 86.5712 16.0329 86.1917 16.1939C85.8121 16.3549 85.4002 16.4241 84.9883 16.3959C83.4454 16.3959 82.134 15.3034 82.134 13.2526V8.59357H84.4251V12.9191C84.4058 13.0999 84.4267 13.2827 84.4861 13.4546C84.5447 13.6267 84.6411 13.7838 84.7676 13.9152C84.8941 14.0465 85.0477 14.1488 85.2181 14.2151C85.3879 14.2815 85.5707 14.3101 85.7535 14.2991C86.5936 14.2991 87.1737 13.8138 87.1737 12.7359V8.59587L89.4625 8.59357Z" fill="white"/>
<path d="M102.6 11.523V16.1828H100.309V11.72C100.309 10.961 99.9424 10.4757 99.2096 10.4757C98.4459 10.4757 98.0177 11.007 98.0177 11.9025V16.1828H95.7274V11.72C95.7274 10.961 95.3609 10.4757 94.6273 10.4757C93.8636 10.4757 93.4362 11.007 93.4362 11.9025V16.1828H91.1451V8.5928H93.4362V9.29047C93.6738 8.98097 93.9855 8.73548 94.3426 8.57655C94.7006 8.41754 95.0925 8.35015 95.4828 8.38044C95.8747 8.36135 96.265 8.44361 96.616 8.6191C96.9663 8.79451 97.2648 9.05733 97.4831 9.3817C97.7369 9.0423 98.0733 8.77243 98.4605 8.59733C98.8478 8.42222 99.2736 8.34762 99.6979 8.38044C101.451 8.3812 102.6 9.6255 102.6 11.523Z" fill="white"/>
<path d="M104.538 8.5468C105.477 8.5468 106.238 7.79025 106.238 6.85706C106.238 5.92384 105.477 5.16733 104.538 5.16733C103.599 5.16733 102.838 5.92384 102.838 6.85706C102.838 7.79025 103.599 8.5468 104.538 8.5468Z" fill="white"/>
</svg>
